<svg id="Layer_1" data-name="Layer 1" xmlns="http://www.w3.org/2000/svg" viewBox="0 0 533.57 372.44"><defs><style>.cls-1{fill:#fdfbe4;}.cls-1,.cls-2,.cls-3,.cls-4,.cls-5{stroke:#fff;stroke-miterlimit:10;stroke-width:0.5px;}.cls-2{fill:#dcecc6;}.cls-3{fill:#73b6cb;}.cls-4{fill:#46538b;}.cls-5{fill:#89c6cb;}</style></defs><title>hex-map</title><g id="NS"><polygon class="cls-1" points="487.77 270.75 474.76 270.75 468.25 282.02 474.76 293.29 487.77 293.29 494.28 282.02 487.77 270.75"/><polygon class="cls-1" points="487.77 248.21 474.76 248.21 468.25 259.48 474.76 270.75 487.77 270.75 494.28 259.48 487.77 248.21"/><polygon class="cls-1" points="468.28 259.48 455.26 259.48 448.75 270.75 455.26 282.02 468.28 282.02 474.78 270.75 468.28 259.48"/></g><g id="NL"><polygon class="cls-2" points="526.77 180.58 513.76 180.58 507.25 191.85 513.76 203.12 526.77 203.12 533.28 191.85 526.77 180.58"/><polygon class="cls-2" points="507.27 191.85 494.26 191.85 487.75 203.12 494.26 214.4 507.27 214.4 513.78 203.12 507.27 191.85"/><polygon class="cls-2" points="507.27 169.31 494.26 169.31 487.75 180.58 494.26 191.85 507.27 191.85 513.78 180.58 507.27 169.31"/><polygon class="cls-2" points="507.27 146.77 494.26 146.77 487.75 158.04 494.26 169.31 507.27 169.31 513.78 158.04 507.27 146.77"/><polygon class="cls-2" points="487.77 180.58 474.76 180.58 468.25 191.85 474.76 203.12 487.77 203.12 494.28 191.85 487.77 180.58"/><polygon class="cls-2" points="487.77 158.04 474.76 158.04 468.25 169.31 474.76 180.58 487.77 180.58 494.28 169.31 487.77 158.04"/><polygon class="cls-2" points="487.77 135.5 474.76 135.5 468.25 146.77 474.76 158.04 487.77 158.04 494.28 146.77 487.77 135.5"/><polygon class="cls-2" points="468.28 146.77 455.26 146.77 448.75 158.04 455.26 169.31 468.28 169.31 474.78 158.04 468.28 146.77"/><polygon class="cls-2" points="468.28 124.23 455.26 124.23 448.75 135.5 455.26 146.77 468.28 146.77 474.78 135.5 468.28 124.23"/><polygon class="cls-2" points="448.78 158.04 435.76 158.04 429.25 169.31 435.76 180.58 448.78 180.58 455.28 169.31 448.78 158.04"/><polygon class="cls-2" points="448.78 135.5 435.76 135.5 429.25 146.77 435.76 158.04 448.78 158.04 455.28 146.77 448.78 135.5"/><polygon class="cls-2" points="429.28 169.31 416.26 169.31 409.76 180.58 416.26 191.85 429.28 191.85 435.79 180.58 429.28 169.31"/><polygon class="cls-2" points="429.28 124.23 416.26 124.23 409.76 135.5 416.26 146.77 429.28 146.77 435.79 135.5 429.28 124.23"/><polygon class="cls-2" points="409.78 112.96 396.77 112.96 390.26 124.23 396.77 135.5 409.78 135.5 416.29 124.23 409.78 112.96"/></g><g id="NB"><polygon class="cls-1" points="468.28 236.94 455.26 236.94 448.75 248.21 455.26 259.48 468.28 259.48 474.78 248.21 468.28 236.94"/><polygon class="cls-1" points="448.78 248.21 435.76 248.21 429.25 259.48 435.76 270.75 448.78 270.75 455.28 259.48 448.78 248.21"/></g><g id="QC"><polygon class="cls-3" points="468.28 214.4 455.26 214.4 448.75 225.67 455.26 236.94 468.28 236.94 474.78 225.67 468.28 214.4"/><polygon class="cls-3" points="468.28 191.85 455.26 191.85 448.75 203.12 455.26 214.4 468.28 214.4 474.78 203.12 468.28 191.85"/><polygon class="cls-3" points="468.28 169.31 455.26 169.31 448.75 180.58 455.26 191.85 468.28 191.85 474.78 180.58 468.28 169.31"/><polygon class="cls-3" points="448.78 225.67 435.76 225.67 429.25 236.94 435.76 248.21 448.78 248.21 455.28 236.94 448.78 225.67"/><polygon class="cls-3" points="448.78 203.12 435.76 203.12 429.25 214.4 435.76 225.67 448.78 225.67 455.28 214.4 448.78 203.12"/><polygon class="cls-3" points="448.78 180.58 435.76 180.58 429.25 191.85 435.76 203.12 448.78 203.12 455.28 191.85 448.78 180.58"/><polygon class="cls-3" points="429.28 282.02 416.26 282.02 409.76 293.29 416.26 304.56 429.28 304.56 435.79 293.29 429.28 282.02"/><polygon class="cls-3" points="429.28 259.48 416.26 259.48 409.76 270.75 416.26 282.02 429.28 282.02 435.79 270.75 429.28 259.48"/><polygon class="cls-3" points="429.28 236.94 416.26 236.94 409.76 248.21 416.26 259.48 429.28 259.48 435.79 248.21 429.28 236.94"/><polygon class="cls-3" points="429.28 214.4 416.26 214.4 409.76 225.67 416.26 236.94 429.28 236.94 435.79 225.67 429.28 214.4"/><polygon class="cls-3" points="429.28 191.85 416.26 191.85 409.76 203.12 416.26 214.4 429.28 214.4 435.79 203.12 429.28 191.85"/><polygon class="cls-3" points="429.28 146.77 416.26 146.77 409.76 158.04 416.26 169.31 429.28 169.31 435.79 158.04 429.28 146.77"/><polygon class="cls-3" points="409.78 293.29 396.77 293.29 390.26 304.56 396.77 315.83 409.78 315.83 416.29 304.56 409.78 293.29"/><polygon class="cls-3" points="409.78 270.75 396.77 270.75 390.26 282.02 396.77 293.29 409.78 293.29 416.29 282.02 409.78 270.75"/><polygon class="cls-3" points="409.78 248.21 396.77 248.21 390.26 259.48 396.77 270.75 409.78 270.75 416.29 259.48 409.78 248.21"/><polygon class="cls-3" points="409.78 225.67 396.77 225.67 390.26 236.94 396.77 248.21 409.78 248.21 416.29 236.94 409.78 225.67"/><polygon class="cls-3" points="409.78 203.12 396.77 203.12 390.26 214.4 396.77 225.67 409.78 225.67 416.29 214.4 409.78 203.12"/><polygon class="cls-3" points="409.78 180.58 396.77 180.58 390.26 191.85 396.77 203.12 409.78 203.12 416.29 191.85 409.78 180.58"/><polygon class="cls-3" points="409.78 158.04 396.77 158.04 390.26 169.31 396.77 180.58 409.78 180.58 416.29 169.31 409.78 158.04"/><polygon class="cls-3" points="409.78 135.5 396.77 135.5 390.26 146.77 396.77 158.04 409.78 158.04 416.29 146.77 409.78 135.5"/><polygon class="cls-3" points="390.28 282.02 377.27 282.02 370.76 293.29 377.27 304.56 390.28 304.56 396.79 293.29 390.28 282.02"/><polygon class="cls-3" points="390.28 259.48 377.27 259.48 370.76 270.75 377.27 282.02 390.28 282.02 396.79 270.75 390.28 259.48"/><polygon class="cls-3" points="390.28 236.94 377.27 236.94 370.76 248.21 377.27 259.48 390.28 259.48 396.79 248.21 390.28 236.94"/><polygon class="cls-3" points="390.28 214.4 377.27 214.4 370.76 225.67 377.27 236.94 390.28 236.94 396.79 225.67 390.28 214.4"/><polygon class="cls-3" points="390.28 191.85 377.27 191.85 370.76 203.12 377.27 214.4 390.28 214.4 396.79 203.12 390.28 191.85"/><polygon class="cls-3" points="390.28 169.31 377.27 169.31 370.76 180.58 377.27 191.85 390.28 191.85 396.79 180.58 390.28 169.31"/><polygon class="cls-3" points="390.28 146.77 377.27 146.77 370.76 158.04 377.27 169.31 390.28 169.31 396.79 158.04 390.28 146.77"/><polygon class="cls-3" points="390.28 124.23 377.27 124.23 370.76 135.5 377.27 146.77 390.28 146.77 396.79 135.5 390.28 124.23"/><polygon class="cls-3" points="370.78 270.75 357.77 270.75 351.26 282.02 357.77 293.29 370.78 293.29 377.29 282.02 370.78 270.75"/><polygon class="cls-3" points="370.78 248.21 357.77 248.21 351.26 259.48 357.77 270.75 370.78 270.75 377.29 259.48 370.78 248.21"/><polygon class="cls-3" points="370.78 225.67 357.77 225.67 351.26 236.94 357.77 248.21 370.78 248.21 377.29 236.94 370.78 225.67"/><polygon class="cls-3" points="370.78 203.12 357.77 203.12 351.26 214.4 357.77 225.67 370.78 225.67 377.29 214.4 370.78 203.12"/><polygon class="cls-3" points="370.78 180.58 357.77 180.58 351.26 191.85 357.77 203.12 370.78 203.12 377.29 191.85 370.78 180.58"/><polygon class="cls-3" points="370.78 158.04 357.77 158.04 351.26 169.31 357.77 180.58 370.78 180.58 377.29 169.31 370.78 158.04"/><polygon class="cls-3" points="370.78 135.5 357.77 135.5 351.26 146.77 357.77 158.04 370.78 158.04 377.29 146.77 370.78 135.5"/><polygon class="cls-3" points="370.78 112.96 357.77 112.96 351.26 124.23 357.77 135.5 370.78 135.5 377.29 124.23 370.78 112.96"/><polygon class="cls-3" points="351.29 191.85 338.27 191.85 331.76 203.12 338.27 214.4 351.29 214.4 357.79 203.12 351.29 191.85"/><polygon class="cls-3" points="351.29 169.31 338.27 169.31 331.76 180.58 338.27 191.85 351.29 191.85 357.79 180.58 351.29 169.31"/><polygon class="cls-3" points="351.29 146.77 338.27 146.77 331.76 158.04 338.27 169.31 351.29 169.31 357.79 158.04 351.29 146.77"/><polygon class="cls-3" points="351.29 124.23 338.27 124.23 331.76 135.5 338.27 146.77 351.29 146.77 357.79 135.5 351.29 124.23"/><polygon class="cls-3" points="351.29 101.69 338.27 101.69 331.76 112.96 338.27 124.23 351.29 124.23 357.79 112.96 351.29 101.69"/><polygon class="cls-3" points="331.79 135.5 318.77 135.5 312.26 146.77 318.77 158.04 331.79 158.04 338.29 146.77 331.79 135.5"/><polygon class="cls-3" points="331.79 112.96 318.77 112.96 312.26 124.23 318.77 135.5 331.79 135.5 338.29 124.23 331.79 112.96"/></g><g id="ON"><polygon class="cls-4" points="390.28 304.56 377.27 304.56 370.76 315.83 377.27 327.1 390.28 327.1 396.79 315.83 390.28 304.56"/><polygon class="cls-4" points="370.78 338.37 357.77 338.37 351.26 349.64 357.77 360.92 370.78 360.92 377.29 349.64 370.78 338.37"/><polygon class="cls-4" points="370.78 315.83 357.77 315.83 351.26 327.1 357.77 338.37 370.78 338.37 377.29 327.1 370.78 315.83"/><polygon class="cls-4" points="370.78 293.29 357.77 293.29 351.26 304.56 357.77 315.83 370.78 315.83 377.29 304.56 370.78 293.29"/><polygon class="cls-4" points="351.29 349.64 338.27 349.64 331.76 360.92 338.27 372.19 351.29 372.19 357.79 360.92 351.29 349.64"/><polygon class="cls-4" points="351.29 327.1 338.27 327.1 331.76 338.37 338.27 349.64 351.29 349.64 357.79 338.37 351.29 327.1"/><polygon class="cls-4" points="351.29 304.56 338.27 304.56 331.76 315.83 338.27 327.1 351.29 327.1 357.79 315.83 351.29 304.56"/><polygon class="cls-4" points="351.29 282.02 338.27 282.02 331.76 293.29 338.27 304.56 351.29 304.56 357.79 293.29 351.29 282.02"/><polygon class="cls-4" points="351.29 259.48 338.27 259.48 331.76 270.75 338.27 282.02 351.29 282.02 357.79 270.75 351.29 259.48"/><polygon class="cls-4" points="351.29 236.94 338.27 236.94 331.76 248.21 338.27 259.48 351.29 259.48 357.79 248.21 351.29 236.94"/><polygon class="cls-4" points="331.79 270.75 318.77 270.75 312.26 282.02 318.77 293.29 331.79 293.29 338.29 282.02 331.79 270.75"/><polygon class="cls-4" points="331.79 248.21 318.77 248.21 312.26 259.48 318.77 270.75 331.79 270.75 338.29 259.48 331.79 248.21"/><polygon class="cls-4" points="331.79 225.67 318.77 225.67 312.26 236.94 318.77 248.21 331.79 248.21 338.29 236.94 331.79 225.67"/><polygon class="cls-4" points="312.29 259.48 299.27 259.48 292.77 270.75 299.27 282.02 312.29 282.02 318.8 270.75 312.29 259.48"/><polygon class="cls-4" points="312.29 236.94 299.27 236.94 292.77 248.21 299.27 259.48 312.29 259.48 318.8 248.21 312.29 236.94"/><polygon class="cls-4" points="312.29 214.4 299.27 214.4 292.77 225.67 299.27 236.94 312.29 236.94 318.8 225.67 312.29 214.4"/><polygon class="cls-4" points="292.79 270.75 279.77 270.75 273.27 282.02 279.77 293.29 292.79 293.29 299.3 282.02 292.79 270.75"/><polygon class="cls-4" points="292.79 248.21 279.77 248.21 273.27 259.48 279.77 270.75 292.79 270.75 299.3 259.48 292.79 248.21"/><polygon class="cls-4" points="292.79 225.67 279.77 225.67 273.27 236.94 279.77 248.21 292.79 248.21 299.3 236.94 292.79 225.67"/><polygon class="cls-4" points="292.79 203.12 279.77 203.12 273.27 214.4 279.77 225.67 292.79 225.67 299.3 214.4 292.79 203.12"/><polygon class="cls-4" points="273.29 259.48 260.28 259.48 253.77 270.75 260.28 282.02 273.29 282.02 279.8 270.75 273.29 259.48"/><polygon class="cls-4" points="273.29 236.94 260.28 236.94 253.77 248.21 260.28 259.48 273.29 259.48 279.8 248.21 273.29 236.94"/><polygon class="cls-4" points="273.29 214.4 260.28 214.4 253.77 225.67 260.28 236.94 273.29 236.94 279.8 225.67 273.29 214.4"/><polygon class="cls-4" points="253.79 270.75 240.78 270.75 234.27 282.02 240.78 293.29 253.79 293.29 260.3 282.02 253.79 270.75"/><polygon class="cls-4" points="253.79 248.21 240.78 248.21 234.27 259.48 240.78 270.75 253.79 270.75 260.3 259.48 253.79 248.21"/></g><g id="MB"><polygon class="cls-3" points="273.29 191.85 260.28 191.85 253.77 203.12 260.28 214.4 273.29 214.4 279.8 203.12 273.29 191.85"/><polygon class="cls-3" points="253.79 225.67 240.78 225.67 234.27 236.94 240.78 248.21 253.79 248.21 260.3 236.94 253.79 225.67"/><polygon class="cls-3" points="253.79 203.12 240.78 203.12 234.27 214.4 240.78 225.67 253.79 225.67 260.3 214.4 253.79 203.12"/><polygon class="cls-3" points="253.79 180.58 240.78 180.58 234.27 191.85 240.78 203.12 253.79 203.12 260.3 191.85 253.79 180.58"/><polygon class="cls-3" points="234.29 259.48 221.28 259.48 214.77 270.75 221.28 282.02 234.29 282.02 240.8 270.75 234.29 259.48"/><polygon class="cls-3" points="234.29 236.94 221.28 236.94 214.77 248.21 221.28 259.48 234.29 259.48 240.8 248.21 234.29 236.94"/><polygon class="cls-3" points="234.29 214.4 221.28 214.4 214.77 225.67 221.28 236.94 234.29 236.94 240.8 225.67 234.29 214.4"/><polygon class="cls-3" points="234.29 191.85 221.28 191.85 214.77 203.12 221.28 214.4 234.29 214.4 240.8 203.12 234.29 191.85"/><polygon class="cls-3" points="234.29 169.31 221.28 169.31 214.77 180.58 221.28 191.85 234.29 191.85 240.8 180.58 234.29 169.31"/><polygon class="cls-3" points="234.29 146.77 221.28 146.77 214.77 158.04 221.28 169.31 234.29 169.31 240.8 158.04 234.29 146.77"/><polygon class="cls-3" points="214.79 270.75 201.78 270.75 195.27 282.02 201.78 293.29 214.79 293.29 221.3 282.02 214.79 270.75"/><polygon class="cls-3" points="214.79 248.21 201.78 248.21 195.27 259.48 201.78 270.75 214.79 270.75 221.3 259.48 214.79 248.21"/><polygon class="cls-3" points="214.79 225.67 201.78 225.67 195.27 236.94 201.78 248.21 214.79 248.21 221.3 236.94 214.79 225.67"/><polygon class="cls-3" points="214.79 203.12 201.78 203.12 195.27 214.4 201.78 225.67 214.79 225.67 221.3 214.4 214.79 203.12"/><polygon class="cls-3" points="214.79 180.58 201.78 180.58 195.27 191.85 201.78 203.12 214.79 203.12 221.3 191.85 214.79 180.58"/><polygon class="cls-3" points="214.79 158.04 201.78 158.04 195.27 169.31 201.78 180.58 214.79 180.58 221.3 169.31 214.79 158.04"/><polygon class="cls-3" points="195.3 146.77 182.28 146.77 175.78 158.04 182.28 169.31 195.3 169.31 201.8 158.04 195.3 146.77"/></g><g id="NU"><polygon class="cls-3" points="292.79 90.42 279.77 90.42 273.27 101.69 279.77 112.96 292.79 112.96 299.3 101.69 292.79 90.42"/><polygon class="cls-3" points="292.79 45.33 279.77 45.33 273.27 56.6 279.77 67.88 292.79 67.88 299.3 56.6 292.79 45.33"/><polygon class="cls-3" points="273.29 79.15 260.28 79.15 253.77 90.42 260.28 101.69 273.29 101.69 279.8 90.42 273.29 79.15"/><polygon class="cls-3" points="273.29 56.6 260.28 56.6 253.77 67.88 260.28 79.15 273.29 79.15 279.8 67.88 273.29 56.6"/><polygon class="cls-3" points="253.79 112.96 240.78 112.96 234.27 124.23 240.78 135.5 253.79 135.5 260.3 124.23 253.79 112.96"/><polygon class="cls-3" points="253.79 90.42 240.78 90.42 234.27 101.69 240.78 112.96 253.79 112.96 260.3 101.69 253.79 90.42"/><polygon class="cls-3" points="253.79 67.88 240.78 67.88 234.27 79.15 240.78 90.42 253.79 90.42 260.3 79.15 253.79 67.88"/><polygon class="cls-3" points="253.79 45.33 240.78 45.33 234.27 56.6 240.78 67.88 253.79 67.88 260.3 56.6 253.79 45.33"/><polygon class="cls-3" points="234.29 124.23 221.28 124.23 214.77 135.5 221.28 146.77 234.29 146.77 240.8 135.5 234.29 124.23"/><polygon class="cls-3" points="234.29 101.69 221.28 101.69 214.77 112.96 221.28 124.23 234.29 124.23 240.8 112.96 234.29 101.69"/><polygon class="cls-3" points="234.29 79.15 221.28 79.15 214.77 90.42 221.28 101.69 234.29 101.69 240.8 90.42 234.29 79.15"/><polygon class="cls-3" points="234.29 56.6 221.28 56.6 214.77 67.88 221.28 79.15 234.29 79.15 240.8 67.88 234.29 56.6"/><polygon class="cls-3" points="214.79 135.5 201.78 135.5 195.27 146.77 201.78 158.04 214.79 158.04 221.3 146.77 214.79 135.5"/><polygon class="cls-3" points="214.79 112.96 201.78 112.96 195.27 124.23 201.78 135.5 214.79 135.5 221.3 124.23 214.79 112.96"/><polygon class="cls-3" points="214.79 90.42 201.78 90.42 195.27 101.69 201.78 112.96 214.79 112.96 221.3 101.69 214.79 90.42"/><polygon class="cls-3" points="214.79 67.88 201.78 67.88 195.27 79.15 201.78 90.42 214.79 90.42 221.3 79.15 214.79 67.88"/><polygon class="cls-3" points="214.79 45.33 201.78 45.33 195.27 56.6 201.78 67.88 214.79 67.88 221.3 56.6 214.79 45.33"/><polygon class="cls-3" points="195.3 124.23 182.28 124.23 175.78 135.5 182.28 146.77 195.3 146.77 201.8 135.5 195.3 124.23"/><polygon class="cls-3" points="195.3 101.69 182.28 101.69 175.78 112.96 182.28 124.23 195.3 124.23 201.8 112.96 195.3 101.69"/><polygon class="cls-3" points="195.3 79.15 182.28 79.15 175.78 90.42 182.28 101.69 195.3 101.69 201.8 90.42 195.3 79.15"/><polygon class="cls-3" points="195.3 56.6 182.28 56.6 175.78 67.88 182.28 79.15 195.3 79.15 201.8 67.88 195.3 56.6"/><polygon class="cls-3" points="175.8 112.96 162.78 112.96 156.28 124.23 162.78 135.5 175.8 135.5 182.31 124.23 175.8 112.96"/><polygon class="cls-3" points="175.8 90.42 162.78 90.42 156.28 101.69 162.78 112.96 175.8 112.96 182.31 101.69 175.8 90.42"/><polygon class="cls-3" points="175.8 67.88 162.78 67.88 156.28 79.15 162.78 90.42 175.8 90.42 182.31 79.15 175.8 67.88"/></g><g id="SK"><polygon class="cls-5" points="175.8 180.58 162.78 180.58 156.28 191.85 162.78 203.12 175.8 203.12 182.31 191.85 175.8 180.58"/><polygon class="cls-5" points="195.3 259.48 182.28 259.48 175.78 270.75 182.28 282.02 195.3 282.02 201.8 270.75 195.3 259.48"/><polygon class="cls-5" points="195.3 236.94 182.28 236.94 175.78 248.21 182.28 259.48 195.3 259.48 201.8 248.21 195.3 236.94"/><polygon class="cls-5" points="195.3 214.4 182.28 214.4 175.78 225.67 182.28 236.94 195.3 236.94 201.8 225.67 195.3 214.4"/><polygon class="cls-5" points="195.3 191.85 182.28 191.85 175.78 203.12 182.28 214.4 195.3 214.4 201.8 203.12 195.3 191.85"/><polygon class="cls-5" points="195.3 169.31 182.28 169.31 175.78 180.58 182.28 191.85 195.3 191.85 201.8 180.58 195.3 169.31"/><polygon class="cls-5" points="175.8 270.75 162.78 270.75 156.28 282.02 162.78 293.29 175.8 293.29 182.31 282.02 175.8 270.75"/><polygon class="cls-5" points="175.8 248.21 162.78 248.21 156.28 259.48 162.78 270.75 175.8 270.75 182.31 259.48 175.8 248.21"/><polygon class="cls-5" points="175.8 225.67 162.78 225.67 156.28 236.94 162.78 248.21 175.8 248.21 182.31 236.94 175.8 225.67"/><polygon class="cls-5" points="175.8 203.12 162.78 203.12 156.28 214.4 162.78 225.67 175.8 225.67 182.31 214.4 175.8 203.12"/><polygon class="cls-5" points="175.8 158.04 162.78 158.04 156.28 169.31 162.78 180.58 175.8 180.58 182.31 169.31 175.8 158.04"/><polygon class="cls-5" points="156.3 259.48 143.28 259.48 136.78 270.75 143.28 282.02 156.3 282.02 162.81 270.75 156.3 259.48"/><polygon class="cls-5" points="156.3 236.94 143.28 236.94 136.78 248.21 143.28 259.48 156.3 259.48 162.81 248.21 156.3 236.94"/><polygon class="cls-5" points="156.3 214.4 143.28 214.4 136.78 225.67 143.28 236.94 156.3 236.94 162.81 225.67 156.3 214.4"/><polygon class="cls-5" points="156.3 191.85 143.28 191.85 136.78 203.12 143.28 214.4 156.3 214.4 162.81 203.12 156.3 191.85"/><polygon class="cls-5" points="156.3 169.31 143.28 169.31 136.78 180.58 143.28 191.85 156.3 191.85 162.81 180.58 156.3 169.31"/><polygon class="cls-5" points="156.3 146.77 143.28 146.77 136.78 158.04 143.28 169.31 156.3 169.31 162.81 158.04 156.3 146.77"/></g><g id="AB"><polygon class="cls-5" points="136.8 270.75 123.79 270.75 117.28 282.02 123.79 293.29 136.8 293.29 143.31 282.02 136.8 270.75"/><polygon class="cls-5" points="136.8 248.21 123.79 248.21 117.28 259.48 123.79 270.75 136.8 270.75 143.31 259.48 136.8 248.21"/><polygon class="cls-5" points="136.8 225.67 123.79 225.67 117.28 236.94 123.79 248.21 136.8 248.21 143.31 236.94 136.8 225.67"/><polygon class="cls-5" points="136.8 203.12 123.79 203.12 117.28 214.4 123.79 225.67 136.8 225.67 143.31 214.4 136.8 203.12"/><polygon class="cls-5" points="136.8 180.58 123.79 180.58 117.28 191.85 123.79 203.12 136.8 203.12 143.31 191.85 136.8 180.58"/><polygon class="cls-5" points="136.8 158.04 123.79 158.04 117.28 169.31 123.79 180.58 136.8 180.58 143.31 169.31 136.8 158.04"/><polygon class="cls-5" points="117.3 259.48 104.29 259.48 97.78 270.75 104.29 282.02 117.3 282.02 123.81 270.75 117.3 259.48"/><polygon class="cls-5" points="117.3 236.94 104.29 236.94 97.78 248.21 104.29 259.48 117.3 259.48 123.81 248.21 117.3 236.94"/><polygon class="cls-5" points="117.3 214.4 104.29 214.4 97.78 225.67 104.29 236.94 117.3 236.94 123.81 225.67 117.3 214.4"/><polygon class="cls-5" points="117.3 191.85 104.29 191.85 97.78 203.12 104.29 214.4 117.3 214.4 123.81 203.12 117.3 191.85"/><polygon class="cls-5" points="117.3 169.31 104.29 169.31 97.78 180.58 104.29 191.85 117.3 191.85 123.81 180.58 117.3 169.31"/><polygon class="cls-5" points="117.3 146.77 104.29 146.77 97.78 158.04 104.29 169.31 117.3 169.31 123.81 158.04 117.3 146.77"/><polygon class="cls-5" points="97.8 203.12 84.79 203.12 78.28 214.4 84.79 225.67 97.8 225.67 104.31 214.4 97.8 203.12"/><polygon class="cls-5" points="97.8 180.58 84.79 180.58 78.28 191.85 84.79 203.12 97.8 203.12 104.31 191.85 97.8 180.58"/></g><g id="NT"><polygon class="cls-3" points="175.8 135.5 162.78 135.5 156.28 146.77 162.78 158.04 175.8 158.04 182.31 146.77 175.8 135.5"/><polygon class="cls-3" points="156.3 124.23 143.28 124.23 136.78 135.5 143.28 146.77 156.3 146.77 162.81 135.5 156.3 124.23"/><polygon class="cls-3" points="156.3 101.69 143.28 101.69 136.78 112.96 143.28 124.23 156.3 124.23 162.81 112.96 156.3 101.69"/><polygon class="cls-3" points="156.3 79.15 143.28 79.15 136.78 90.42 143.28 101.69 156.3 101.69 162.81 90.42 156.3 79.15"/><polygon class="cls-3" points="156.3 56.6 143.28 56.6 136.78 67.88 143.28 79.15 156.3 79.15 162.81 67.88 156.3 56.6"/><polygon class="cls-3" points="136.8 135.5 123.79 135.5 117.28 146.77 123.79 158.04 136.8 158.04 143.31 146.77 136.8 135.5"/><polygon class="cls-3" points="136.8 112.96 123.79 112.96 117.28 124.23 123.79 135.5 136.8 135.5 143.31 124.23 136.8 112.96"/><polygon class="cls-3" points="136.8 90.42 123.79 90.42 117.28 101.69 123.79 112.96 136.8 112.96 143.31 101.69 136.8 90.42"/><polygon class="cls-3" points="136.8 67.88 123.79 67.88 117.28 79.15 123.79 90.42 136.8 90.42 143.31 79.15 136.8 67.88"/><polygon class="cls-3" points="136.8 45.33 123.79 45.33 117.28 56.6 123.79 67.88 136.8 67.88 143.31 56.6 136.8 45.33"/><polygon class="cls-3" points="117.3 124.23 104.29 124.23 97.78 135.5 104.29 146.77 117.3 146.77 123.81 135.5 117.3 124.23"/><polygon class="cls-3" points="117.3 101.69 104.29 101.69 97.78 112.96 104.29 124.23 117.3 124.23 123.81 112.96 117.3 101.69"/><polygon class="cls-3" points="117.3 79.15 104.29 79.15 97.78 90.42 104.29 101.69 117.3 101.69 123.81 90.42 117.3 79.15"/><polygon class="cls-3" points="117.3 56.6 104.29 56.6 97.78 67.88 104.29 79.15 117.3 79.15 123.81 67.88 117.3 56.6"/><polygon class="cls-3" points="117.3 34.06 104.29 34.06 97.78 45.33 104.29 56.6 117.3 56.6 123.81 45.33 117.3 34.06"/><polygon class="cls-3" points="97.8 112.96 84.79 112.96 78.28 124.23 84.79 135.5 97.8 135.5 104.31 124.23 97.8 112.96"/><polygon class="cls-3" points="97.8 90.42 84.79 90.42 78.28 101.69 84.79 112.96 97.8 112.96 104.31 101.69 97.8 90.42"/></g><g id="BC"><polygon class="cls-4" points="97.8 270.75 84.79 270.75 78.28 282.02 84.79 293.29 97.8 293.29 104.31 282.02 97.8 270.75"/><polygon class="cls-4" points="97.8 248.21 84.79 248.21 78.28 259.48 84.79 270.75 97.8 270.75 104.31 259.48 97.8 248.21"/><polygon class="cls-4" points="97.8 225.67 84.79 225.67 78.28 236.94 84.79 248.21 97.8 248.21 104.31 236.94 97.8 225.67"/><polygon class="cls-4" points="97.8 158.04 84.79 158.04 78.28 169.31 84.79 180.58 97.8 180.58 104.31 169.31 97.8 158.04"/><polygon class="cls-4" points="97.8 135.5 84.79 135.5 78.28 146.77 84.79 158.04 97.8 158.04 104.31 146.77 97.8 135.5"/><polygon class="cls-4" points="78.31 259.48 65.29 259.48 58.78 270.75 65.29 282.02 78.31 282.02 84.81 270.75 78.31 259.48"/><polygon class="cls-4" points="78.31 236.94 65.29 236.94 58.78 248.21 65.29 259.48 78.31 259.48 84.81 248.21 78.31 236.94"/><polygon class="cls-4" points="78.31 214.4 65.29 214.4 58.78 225.67 65.29 236.94 78.31 236.94 84.81 225.67 78.31 214.4"/><polygon class="cls-4" points="78.31 191.85 65.29 191.85 58.78 203.12 65.29 214.4 78.31 214.4 84.81 203.12 78.31 191.85"/><polygon class="cls-4" points="78.31 169.31 65.29 169.31 58.78 180.58 65.29 191.85 78.31 191.85 84.81 180.58 78.31 169.31"/><polygon class="cls-4" points="78.31 146.77 65.29 146.77 58.78 158.04 65.29 169.31 78.31 169.31 84.81 158.04 78.31 146.77"/><polygon class="cls-4" points="78.31 124.23 65.29 124.23 58.78 135.5 65.29 146.77 78.31 146.77 84.81 135.5 78.31 124.23"/><polygon class="cls-4" points="58.81 248.21 45.79 248.21 39.29 259.48 45.79 270.75 58.81 270.75 65.31 259.48 58.81 248.21"/><polygon class="cls-4" points="58.81 225.67 45.79 225.67 39.29 236.94 45.79 248.21 58.81 248.21 65.31 236.94 58.81 225.67"/><polygon class="cls-4" points="58.81 203.12 45.79 203.12 39.29 214.4 45.79 225.67 58.81 225.67 65.31 214.4 58.81 203.12"/><polygon class="cls-4" points="58.81 180.58 45.79 180.58 39.29 191.85 45.79 203.12 58.81 203.12 65.31 191.85 58.81 180.58"/><polygon class="cls-4" points="58.81 158.04 45.79 158.04 39.29 169.31 45.79 180.58 58.81 180.58 65.31 169.31 58.81 158.04"/><polygon class="cls-4" points="58.81 135.5 45.79 135.5 39.29 146.77 45.79 158.04 58.81 158.04 65.31 146.77 58.81 135.5"/><polygon class="cls-4" points="58.81 112.96 45.79 112.96 39.29 124.23 45.79 135.5 58.81 135.5 65.31 124.23 58.81 112.96"/><polygon class="cls-4" points="39.31 214.4 26.29 214.4 19.79 225.67 26.29 236.94 39.31 236.94 45.82 225.67 39.31 214.4"/><polygon class="cls-4" points="39.31 191.85 26.29 191.85 19.79 203.12 26.29 214.4 39.31 214.4 45.82 203.12 39.31 191.85"/><polygon class="cls-4" points="39.31 169.31 26.29 169.31 19.79 180.58 26.29 191.85 39.31 191.85 45.82 180.58 39.31 169.31"/><polygon class="cls-4" points="39.31 146.77 26.29 146.77 19.79 158.04 26.29 169.31 39.31 169.31 45.82 158.04 39.31 146.77"/><polygon class="cls-4" points="39.31 124.23 26.29 124.23 19.79 135.5 26.29 146.77 39.31 146.77 45.82 135.5 39.31 124.23"/><polygon class="cls-4" points="39.31 101.69 26.29 101.69 19.79 112.96 26.29 124.23 39.31 124.23 45.82 112.96 39.31 101.69"/><polygon class="cls-4" points="19.81 90.42 6.8 90.42 0.29 101.69 6.8 112.96 19.81 112.96 26.32 101.69 19.81 90.42"/></g><g id="YT"><polygon class="cls-3" points="97.8 67.88 84.79 67.88 78.28 79.15 84.79 90.42 97.8 90.42 104.31 79.15 97.8 67.88"/><polygon class="cls-3" points="97.8 45.33 84.79 45.33 78.28 56.6 84.79 67.88 97.8 67.88 104.31 56.6 97.8 45.33"/><polygon class="cls-3" points="97.8 22.79 84.79 22.79 78.28 34.06 84.79 45.33 97.8 45.33 104.31 34.06 97.8 22.79"/><polygon class="cls-3" points="97.8 0.25 84.79 0.25 78.28 11.52 84.79 22.79 97.8 22.79 104.31 11.52 97.8 0.25"/><polygon class="cls-3" points="78.31 101.69 65.29 101.69 58.78 112.96 65.29 124.23 78.31 124.23 84.81 112.96 78.31 101.69"/><polygon class="cls-3" points="78.31 79.15 65.29 79.15 58.78 90.42 65.29 101.69 78.31 101.69 84.81 90.42 78.31 79.15"/><polygon class="cls-3" points="78.31 56.6 65.29 56.6 58.78 67.88 65.29 79.15 78.31 79.15 84.81 67.88 78.31 56.6"/><polygon class="cls-3" points="78.31 34.06 65.29 34.06 58.78 45.33 65.29 56.6 78.31 56.6 84.81 45.33 78.31 34.06"/><polygon class="cls-3" points="78.31 11.52 65.29 11.52 58.78 22.79 65.29 34.06 78.31 34.06 84.81 22.79 78.31 11.52"/><polygon class="cls-3" points="58.81 90.42 45.79 90.42 39.29 101.69 45.79 112.96 58.81 112.96 65.31 101.69 58.81 90.42"/><polygon class="cls-3" points="58.81 67.88 45.79 67.88 39.29 79.15 45.79 90.42 58.81 90.42 65.31 79.15 58.81 67.88"/><polygon class="cls-3" points="58.81 45.33 45.79 45.33 39.29 56.6 45.79 67.88 58.81 67.88 65.31 56.6 58.81 45.33"/><polygon class="cls-3" points="58.81 22.79 45.79 22.79 39.29 34.06 45.79 45.33 58.81 45.33 65.31 34.06 58.81 22.79"/><polygon class="cls-3" points="58.81 0.25 45.79 0.25 39.29 11.52 45.79 22.79 58.81 22.79 65.31 11.52 58.81 0.25"/><polygon class="cls-3" points="39.31 79.15 26.29 79.15 19.79 90.42 26.29 101.69 39.31 101.69 45.82 90.42 39.31 79.15"/><polygon class="cls-3" points="39.31 56.6 26.29 56.6 19.79 67.88 26.29 79.15 39.31 79.15 45.82 67.88 39.31 56.6"/><polygon class="cls-3" points="39.31 34.06 26.29 34.06 19.79 45.33 26.29 56.6 39.31 56.6 45.82 45.33 39.31 34.06"/><polygon class="cls-3" points="19.81 67.88 6.8 67.88 0.29 79.15 6.8 90.42 19.81 90.42 26.32 79.15 19.81 67.88"/></g></svg>